<svg xmlns="http://www.w3.org/2000/svg" version="1.1" xmlns:xlink="http://www.w3.org/1999/xlink" xmlns:svgjs="http://svgjs.dev/svgjs" width="1000" height="1000" viewBox="0 0 1000 1000"><rect width="1000" height="1000" fill="#000000"></rect><g transform="matrix(0.7,0,0,0.7,149.57575757575756,282.1265587044535)"><svg viewBox="0 0 396 247" data-background-color="#ffffff" preserveAspectRatio="xMidYMid meet" height="623" width="1000" xmlns="http://www.w3.org/2000/svg" xmlns:xlink="http://www.w3.org/1999/xlink"><g id="tight-bounds" transform="matrix(1,0,0,1,0.2400000000000091,-0.09999999999999432)"><svg viewBox="0 0 395.52 247.2" height="247.2" width="395.52"><g><svg></svg></g><g><svg viewBox="0 0 395.52 247.2" height="247.2" width="395.52"><g transform="matrix(1,0,0,1,75.54432,81.84388646360284)"><svg viewBox="0 0 244.43135999999998 83.5122270727943" height="83.5122270727943" width="244.43135999999998"><g><svg viewBox="0 0 244.43135999999998 83.5122270727943" height="83.5122270727943" width="244.43135999999998"><g><svg viewBox="0 0 244.43135999999998 83.5122270727943" height="83.5122270727943" width="244.43135999999998"><g id="textblocktransform"><svg viewBox="0 0 244.43135999999998 83.5122270727943" height="83.5122270727943" width="244.43135999999998" id="textblock"><g><svg viewBox="0 0 244.43135999999998 52.85498045618247" height="52.85498045618247" width="244.43135999999998"><g transform="matrix(1,0,0,1,0,0)"><svg width="244.43135999999998" viewBox="2.690000057220459 -34.689998626708984 162.67999267578125 35.18000030517578" height="52.85498045618247" data-palette-color="#6b7280"><path d="M13.99-10.18L13.99-34.69 18.14-34.69 18.14-10.4Q18.14-7.69 17.65-5.88 17.16-4.08 15.75-2.59L15.75-2.59Q12.89 0.42 7.47 0.42L7.47 0.42Q5.03 0.42 2.69-0.17L2.69-0.17 3.34-3.64Q4.98-3.25 6.79-3.25L6.79-3.25Q8.28-3.25 9.45-3.55 10.62-3.86 11.36-4.28 12.11-4.71 12.65-5.41 13.18-6.1 13.43-6.65 13.67-7.2 13.82-8 13.96-8.79 13.98-9.18 13.99-9.57 13.99-10.18L13.99-10.18ZM35.64-24.58L35.64-24.58Q38.33-24.58 40.2-23.96 42.06-23.34 43.08-22.14 44.09-20.95 44.53-19.48 44.97-18.02 44.97-16.11L44.97-16.11 44.97 0 42.14 0 41.21-2.2Q38.25 0.49 34.42 0.49L34.42 0.49Q31 0.49 28.64-1.57 26.27-3.64 26.27-6.4L26.27-6.4Q26.27-7.86 26.8-9.03 27.34-10.21 28.35-10.99 29.37-11.77 30.66-12.32 31.96-12.87 33.68-13.16 35.4-13.45 37.13-13.57 38.86-13.7 40.94-13.7L40.94-13.7 40.94-15.6Q40.94-16.43 40.88-17.04 40.82-17.65 40.48-18.51 40.13-19.36 39.55-19.91 38.96-20.46 37.79-20.86 36.62-21.26 35.01-21.26L35.01-21.26Q32.52-21.26 28.56-20.17L28.56-20.17 27.81-23.1Q31.81-24.58 35.64-24.58ZM40.94-5.13L40.94-10.67 39.45-10.67Q38.06-10.67 37.03-10.62 36.01-10.57 34.63-10.34 33.25-10.11 32.37-9.69 31.49-9.28 30.87-8.48 30.25-7.69 30.25-6.59L30.25-6.59Q30.25-5.05 31.8-3.86 33.35-2.66 35.5-2.66L35.5-2.66Q38.64-2.66 40.94-5.13L40.94-5.13ZM59.39 0L50.83-24.12 55.1-24.12 61.64-3.88 67.84-24.12 71.77-24.12 78.22-3.91 84.76-24.12 89.03-24.12 80.22 0 76.19 0 69.77-19.56 63.42 0 59.39 0ZM105.41-24.58L105.41-24.58Q110.42-24.58 113.65-21.39 116.89-18.19 116.89-12.55L116.89-12.55Q116.89-6.57 113.58-3.04 110.27 0.49 105.02 0.49L105.02 0.49Q100.02 0.49 96.84-2.82 93.67-6.13 93.67-11.79L93.67-11.79Q93.67-17.63 96.9-21.11 100.14-24.58 105.41-24.58ZM105.07-21.17L105.07-21.17Q102.07-21.17 99.82-18.85 97.58-16.53 97.58-12.48L97.58-12.48Q97.58-8.45 99.77-5.69 101.97-2.93 105.46-2.93L105.46-2.93Q108.68-2.93 110.83-5.37 112.98-7.81 112.98-11.74L112.98-11.74Q112.98-13.99 112.28-15.82 111.59-17.65 110.45-18.8 109.32-19.95 107.93-20.56 106.54-21.17 105.07-21.17ZM136.71-3.15L137.27-0.42Q133.73 0.49 131.75 0.49 129.78 0.49 128.41-0.15 127.04-0.78 126.33-1.95 125.62-3.13 125.32-4.48 125.01-5.83 125.01-7.59L125.01-7.59 125.01-20.97 121.77-20.97 121.77-24.12 125.01-24.12 125.01-31.03 129.02-31.03 129.02-24.12 136.37-24.12 136.37-20.97 129.02-20.97 129.02-7.64Q129.02-2.64 132.97-2.64L132.97-2.64Q133.68-2.64 136.71-3.15L136.71-3.15ZM153.89-24.58L153.89-24.58Q158.9-24.58 162.13-21.39 165.37-18.19 165.37-12.55L165.37-12.55Q165.37-6.57 162.06-3.04 158.75 0.49 153.5 0.49L153.5 0.49Q148.5 0.49 145.32-2.82 142.15-6.13 142.15-11.79L142.15-11.79Q142.15-17.63 145.39-21.11 148.62-24.58 153.89-24.58ZM153.55-21.17L153.55-21.17Q150.55-21.17 148.3-18.85 146.06-16.53 146.06-12.48L146.06-12.48Q146.06-8.45 148.25-5.69 150.45-2.93 153.94-2.93L153.94-2.93Q157.17-2.93 159.31-5.37 161.46-7.81 161.46-11.74L161.46-11.74Q161.46-13.99 160.77-15.82 160.07-17.65 158.94-18.8 157.8-19.95 156.41-20.56 155.02-21.17 153.55-21.17Z" opacity="1" transform="matrix(1,0,0,1,0,0)" fill="#ffffff" class="undefined-text-0" data-fill-palette-color="primary" id="text-0"></path></svg></g></svg></g><g transform="matrix(1,0,0,1,0,65.3327728223562)"><svg viewBox="0 0 143.50565145599998 18.17945425043811" height="18.17945425043811" width="143.50565145599998"><g transform="matrix(1,0,0,1,0,0)"><svg width="143.50565145599998" viewBox="2.640000104904175 -40.599998474121094 428.3799743652344 54.269996643066406" height="18.17945425043811" data-palette-color="#6b7280"><path d="M14.4-2.34L14.4-2.34Q16.21-2.34 17.69-2.7 19.17-3.05 20.24-3.81L20.24-3.81Q22.53-5.4 22.53-8.45L22.53-8.45Q22.53-11.04 20.85-12.7L20.85-12.7Q19.07-14.4 15.08-16.15 11.08-17.9 9-19.27 6.91-20.65 5.71-22.07L5.71-22.07Q3.54-24.56 3.54-28.1L3.54-28.1Q3.54-32.2 7.08-34.86L7.08-34.86Q10.38-37.38 15.06-37.38L15.06-37.38Q18.75-37.38 22.44-36.04L22.44-36.04Q23.97-35.42 25.22-34.69L25.22-34.69 24.37-28.17 22.31-28.17Q22.31-31.54 20.48-33.07 18.65-34.59 15.19-34.59L15.19-34.59Q10.4-34.59 8.64-31.47L8.64-31.47Q8.08-30.44 8.08-29.17 8.08-27.91 8.45-26.89 8.81-25.88 9.86-24.9L9.86-24.9Q11.91-22.92 17.58-20.56L17.58-20.56Q25.49-17.19 26.81-12.6L26.81-12.6Q27.2-11.16 27.2-9.53 27.2-7.91 26.65-6.46 26.1-5 25.15-3.87 24.19-2.73 22.94-1.9 21.68-1.07 20.26-0.54L20.26-0.54Q13.99 1.9 7.08-0.93L7.08-0.93Q4.57-1.98 2.64-3.49L2.64-3.49 3.66-10.5 5.74-10.5Q5.74-5.59 8.84-3.66L8.84-3.66Q10.96-2.34 14.4-2.34ZM46.58-21.56L46.58-21.56Q42.31-21.56 38.64-18.97L38.64-18.97 38.64-2.59 41.75-2.03 41.75 0 31.54 0 31.54-2.03 34.69-2.59 34.69-20.36 31.54-20.92 31.54-22.95 38.64-24.73 38.64-21.56Q43.23-24.73 47.29-24.73L47.29-24.73Q52.37-24.73 53.88-21.51L53.88-21.51Q56.37-23.24 58.74-23.99 61.11-24.73 62.77-24.73L62.77-24.73Q66.48-24.73 68.3-22.88 70.11-21.02 70.11-17.19L70.11-17.19 70.11-2.59 73.19-2.03 73.19 0 63.03 0 63.03-2.03 66.14-2.59 66.14-17.19Q66.14-19.38 64.84-20.56L64.84-20.56Q63.74-21.56 62.11-21.56L62.11-21.56Q57.91-21.56 54.42-19.04L54.42-19.04Q54.54-17.82 54.54-17.19L54.54-17.19 54.54-2.59 57.35-2.03 57.35 0 47.68 0 47.68-2.03 50.53-2.59 50.53-17.19Q50.53-19.38 49.31-20.56L49.31-20.56Q48.26-21.56 46.58-21.56ZM99.58-3.56L100.02-1.27Q96.45 0.56 94.87 0.56L94.87 0.56Q91.3 0.56 91.3-2.47L91.3-2.47 91.3-3.22Q90.96-2.71 89.44-1.73 87.91-0.76 87.06-0.37L87.06-0.37Q85.03 0.56 83.98 0.56 82.93 0.56 82.25 0.48 81.56 0.39 80.83 0.15 80.1-0.1 79.39-0.54 78.68-0.98 78.12-1.68L78.12-1.68Q76.87-3.25 76.87-5.76L76.87-5.76Q76.87-9.23 79.34-10.6L79.34-10.6Q80.9-11.5 82.65-11.72 84.39-11.94 85.83-12.06L85.83-12.06Q88.57-12.3 91.3-12.35L91.3-12.35 91.3-17.48Q91.3-19.6 90.77-20.31L90.77-20.31Q89.86-21.56 87.96-21.56L87.96-21.56Q83.71-21.56 79.61-18.8L79.61-18.8 78.19-20.92Q83.91-24.73 88.42-24.73L88.42-24.73Q92.35-24.73 93.99-22.56L93.99-22.56Q95.26-20.87 95.26-17.77L95.26-17.77 95.26-4.93Q95.26-3.13 95.94-2.88L95.94-2.88Q96.19-2.81 96.58-2.81L96.58-2.81Q97.55-2.81 99.58-3.56L99.58-3.56ZM91.3-5.47L91.3-10.3Q84.37-10.03 82.42-8.91L82.42-8.91Q80.93-8.06 80.93-6.15L80.93-6.15Q80.93-3.39 83.05-2.76L83.05-2.76Q83.64-2.59 84.48-2.59 85.32-2.59 86.45-2.93 87.57-3.27 88.52-3.76L88.52-3.76Q90.33-4.64 91.3-5.47L91.3-5.47ZM104.31-2.59L104.31-20.36 101.19-20.92 101.19-22.95 108.27-24.73 108.27-18.51Q113.88-24.73 116.72-24.73L116.72-24.73Q119.04-24.73 120.99-22.88L120.99-22.88 119.72-18.92 118.57-18.92Q118.57-20.12 116.74-20.7L116.74-20.7Q116.23-20.85 115.72-20.85L115.72-20.85Q113.13-20.85 108.27-15.65L108.27-15.65 108.27-2.59 113.1-2.03 113.1 0 101.19 0 101.19-2.03 104.31-2.59ZM129.16-21.29L129.16-7.47Q129.16-2.59 133.12-2.59L133.12-2.59Q135.2-2.59 137.15-4.3L137.15-4.3 138.47-2.69Q136.39-0.98 134.63-0.21 132.88 0.56 131.53 0.56 130.19 0.56 128.93-0.02 127.68-0.61 126.85-1.71L126.85-1.71Q125.21-3.83 125.21-7.74L125.21-7.74 125.21-21.29 122.11-21.29 122.11-23.41 125.21-24.15 125.21-27.42 128.09-30.3 129.16-30.3 129.16-24.15 137.22-24.15 137.22-21.29 129.16-21.29ZM178.87-3.56L179.31-1.27Q175.74 0.56 174.15 0.56L174.15 0.56Q170.59 0.56 170.59-2.47L170.59-2.47 170.59-3.22Q170.25-2.71 168.72-1.73 167.2-0.76 166.34-0.37L166.34-0.37Q164.32 0.56 163.27 0.56 162.22 0.56 161.53 0.48 160.85 0.39 160.12 0.15 159.38-0.1 158.68-0.54 157.97-0.98 157.41-1.68L157.41-1.68Q156.16-3.25 156.16-5.76L156.16-5.76Q156.16-9.23 158.63-10.6L158.63-10.6Q160.19-11.5 161.94-11.72 163.68-11.94 165.12-12.06L165.12-12.06Q167.86-12.3 170.59-12.35L170.59-12.35 170.59-17.48Q170.59-19.6 170.05-20.31L170.05-20.31Q169.15-21.56 167.25-21.56L167.25-21.56Q163-21.56 158.9-18.8L158.9-18.8 157.48-20.92Q163.19-24.73 167.71-24.73L167.71-24.73Q171.64-24.73 173.28-22.56L173.28-22.56Q174.55-20.87 174.55-17.77L174.55-17.77 174.55-4.93Q174.55-3.13 175.23-2.88L175.23-2.88Q175.47-2.81 175.86-2.81L175.86-2.81Q176.84-2.81 178.87-3.56L178.87-3.56ZM170.59-5.47L170.59-10.3Q163.66-10.03 161.7-8.91L161.7-8.91Q160.21-8.06 160.21-6.15L160.21-6.15Q160.21-3.39 162.34-2.76L162.34-2.76Q162.92-2.59 163.77-2.59 164.61-2.59 165.73-2.93 166.86-3.27 167.81-3.76L167.81-3.76Q169.61-4.64 170.59-5.47L170.59-5.47ZM195.86-21.56L195.86-21.56Q192.12-21.56 188.36-18.97L188.36-18.97 188.36-2.59 191.46-2.03 191.46 0 181.21 0 181.21-2.03 184.38-2.59 184.38-20.36 181.21-20.92 181.21-22.95 187.95-24.73 187.95-21.56Q192.88-24.73 197.1-24.73L197.1-24.73Q202.18-24.73 203.72-20.51L203.72-20.51Q204.23-19.09 204.23-17.19L204.23-17.19 204.23-2.59 207.33-2.03 207.33 0 197.1 0 197.1-2.03 200.25-2.59 200.25-16.72Q200.25-21.56 195.86-21.56ZM223.3-24.73L223.3-24.73Q226.35-24.73 229.37-23.54L229.37-23.54 229.37-36.06 225.64-36.82 225.64-38.79 233.33-40.6 233.33-3.91Q233.33-2.81 234.56-2.81 235.8-2.81 237.65-3.56L237.65-3.56 238.16-1.27Q234.67 0.56 232.94 0.56L232.94 0.56Q230.42 0.56 229.64-1.07L229.64-1.07Q229.37-1.66 229.37-2.47L229.37-2.47Q227.54-0.85 225.47-0.15 223.39 0.56 221.16 0.56 218.93 0.56 216.85-0.29 214.77-1.15 213.38-2.73L213.38-2.73Q210.67-5.83 210.67-11.5L210.67-11.5Q210.67-16.92 213.87-20.61L213.87-20.61Q217.41-24.73 223.3-24.73ZM223.3-2.86L223.3-2.86Q225.76-2.86 229.37-5.18L229.37-5.18 229.37-19.04Q227.27-21.85 222.69-21.85L222.69-21.85Q219.15-21.85 216.95-18.99L216.95-18.99Q214.9-16.28 214.9-12.01L214.9-12.01Q214.9-8.13 216.85-5.64L216.85-5.64Q219-2.86 223.3-2.86ZM256.98-34.74L256.98-36.82 268.94-36.82 268.94-34.74 265.21-34.18 265.21-20.24 285.6-20.24 285.6-34.18 281.88-34.74 281.88-36.82 293.85-36.82 293.85-34.74 290.16-34.18 290.16-2.64 293.85-2.08 293.85 0 281.88 0 281.88-2.08 285.6-2.64 285.6-17.31 265.21-17.31 265.21-2.64 268.94-2.08 268.94 0 256.98 0 256.98-2.08 260.69-2.64 260.69-34.18 256.98-34.74ZM323.29-3.32L323.8-1.03Q321.14 0.56 319.55 0.56L319.55 0.56Q318.04 0.56 317.31-0.05L317.31-0.05Q315.99-1.07 315.99-2.47L315.99-2.47 315.99-2.81Q313.89-1.03 311.64-0.23 309.4 0.56 307.71 0.56L307.71 0.56Q304.29 0.56 302.35-1.31 300.41-3.17 300.41-6.96L300.41-6.96 300.41-20.36 297.51-20.85 297.51-23 304.37-24.73 304.37-6.96Q304.37-4.76 305.88-3.56L305.88-3.56Q307.13-2.59 308.81-2.59L308.81-2.59Q311.57-2.59 313.99-4.05L313.99-4.05Q315.08-4.69 315.99-5.54L315.99-5.54 315.99-20.36 312.3-20.85 312.3-22.88 319.94-24.73 319.94-4.13Q319.94-2.81 321.26-2.81L321.26-2.81Q322.19-2.81 323.29-3.32L323.29-3.32ZM341.82-21.56L341.82-21.56Q338.08-21.56 334.32-18.97L334.32-18.97 334.32-2.59 337.42-2.03 337.42 0 327.17 0 327.17-2.03 330.34-2.59 330.34-20.36 327.17-20.92 327.17-22.95 333.91-24.73 333.91-21.56Q338.84-24.73 343.06-24.73L343.06-24.73Q348.14-24.73 349.68-20.51L349.68-20.51Q350.19-19.09 350.19-17.19L350.19-17.19 350.19-2.59 353.29-2.03 353.29 0 343.06 0 343.06-2.03 346.21-2.59 346.21-16.72Q346.21-21.56 341.82-21.56ZM380.39-20.58L377.21-20.58Q378.36-18.73 378.36-15.97L378.36-15.97Q378.36-12.08 374.45-9.08L374.45-9.08Q372.75-7.76 370.45-6.88L370.45-6.88 366.72-5.47Q364.03-4.47 363.68-4.09 363.32-3.71 363.32-3.48 363.32-3.25 363.57-3.03 363.81-2.81 364.37-2.61L364.37-2.61Q365.71-2.15 368.13-2.15 370.55-2.15 372.65-1.89 374.75-1.64 376.36-0.93L376.36-0.93Q379.87 0.66 379.87 4.49L379.87 4.49Q379.87 7.08 377.85 9.3L377.85 9.3Q375.04 12.35 369.89 13.38L369.89 13.38Q368.35 13.67 366.5 13.67 364.64 13.67 362.71 13.28 360.78 12.89 359.34 12.06L359.34 12.06Q356.29 10.33 356.29 6.86L356.29 6.86Q356.29 4.17 358.56 2.73L358.56 2.73 360.15 1.78Q360.81 1.44 361.63 1.27 362.44 1.1 363.27 0.88L363.27 0.88Q360.64 0.37 359.64-1.22L359.64-1.22Q359.29-1.78 359.29-2.4 359.29-3.03 359.54-3.47 359.78-3.91 360.42-4.35 361.05-4.79 362.17-5.32L362.17-5.32 365.08-6.69Q362.78-7.13 360.78-8.81L360.78-8.81Q358.02-11.13 358.02-15.36L358.02-15.36Q358.02-19.41 361.59-22.22L361.59-22.22Q364.74-24.73 368.52-24.73 372.31-24.73 375.07-22.95L375.07-22.95Q376.82-24.17 380.88-24.68L380.88-24.68 381.53-23.93 380.39-20.58ZM360.71 5.46Q360.56 6.13 360.56 7.15 360.56 8.18 361.32 9.05 362.08 9.91 363.25 10.38L363.25 10.38Q365.15 11.13 367.56 11.13 369.96 11.13 371.23 10.74 372.5 10.35 373.45 9.62L373.45 9.62Q375.6 8.01 375.6 5.42L375.6 5.42Q375.6 2.17 371.01 1.76L371.01 1.76Q369.67 1.64 368.2 1.64L368.2 1.64Q364.01 1.64 361.54 4.1L361.54 4.1Q360.86 4.79 360.71 5.46ZM362.57-18.95L362.57-18.95Q362.05-17.75 362.05-16.03 362.05-14.31 362.57-13.04 363.08-11.77 363.96-10.89L363.96-10.89Q365.74-9.11 368.55-9.11L368.55-9.11Q372.21-9.11 373.77-12.18L373.77-12.18Q374.36-13.33 374.36-15.03 374.36-16.72 373.84-18.04 373.33-19.36 372.45-20.29L372.45-20.29Q370.62-22.22 367.86-22.22L367.86-22.22Q363.96-22.22 362.57-18.95ZM387.95-2.59L387.95-20.36 384.83-20.92 384.83-22.95 391.91-24.73 391.91-18.51Q397.52-24.73 400.36-24.73L400.36-24.73Q402.67-24.73 404.63-22.88L404.63-22.88 403.36-18.92 402.21-18.92Q402.21-20.12 400.38-20.7L400.38-20.7Q399.87-20.85 399.35-20.85L399.35-20.85Q396.77-20.85 391.91-15.65L391.91-15.65 391.91-2.59 396.74-2.03 396.74 0 384.83 0 384.83-2.03 387.95-2.59ZM406.55 6.03L407.82 6.03Q407.82 8.42 409.95 8.42L409.95 8.42Q411.22 8.42 412.19 6.93L412.19 6.93Q412.44 6.52 412.58 6.1L412.58 6.1 415.32 0.05Q407.16-19.12 406.21-21.56L406.21-21.56 402.87-22.12 402.87-24.15 413.76-24.15 413.76-22.12 410.73-21.56 417.52-5.1 424.69-21.68 421.42-22.12 421.42-24.15 431.02-24.15 431.02-22.12 427.67-21.56 415.42 6.35Q414.88 8.11 413.73 9.38L413.73 9.38Q411.53 11.84 409.95 11.84L409.95 11.84Q407.6 11.84 405.24 10.79L405.24 10.79 406.55 6.03Z" opacity="1" transform="matrix(1,0,0,1,0,0)" fill="#ffffff" class="undefined-text-1" data-fill-palette-color="secondary" id="text-1"></path></svg></g></svg></g></svg></g></svg></g></svg></g></svg></g><path d="M176.845 75.844L176.845 15.833 392.38 15.833 392.38 231.367 176.845 231.367 176.845 171.356 181.611 171.356 181.611 226.601 387.613 226.601 387.613 20.599 181.611 20.599 181.611 75.844Z" fill="#ffffff" stroke="transparent" data-fill-palette-color="primary"></path></svg></g><defs></defs></svg><rect width="395.52" height="247.2" fill="none" stroke="none" visibility="hidden"></rect></g></svg></g></svg>